<?xml version="1.0" encoding="UTF-8"?>
<svg version="1.1" xmlns="http://www.w3.org/2000/svg" width="65" height="65">
<path d="M0 0 C21.45 0 42.9 0 65 0 C65 21.45 65 42.9 65 65 C43.55 65 22.1 65 0 65 C0 43.55 0 22.1 0 0 Z " fill="#474647" transform="translate(0,0)"/>
<path d="M0 0 C4.38415647 0.78288508 5.80548156 2.13797613 8.5 5.625 C9.3125 7.9375 9.3125 7.9375 9.5 9.625 C10.16 8.965 10.82 8.305 11.5 7.625 C14.9375 7.25 14.9375 7.25 18.5 7.625 C20.5 9.3125 20.5 9.3125 21.5 11.625 C21.25925978 14.99536311 20.91201979 16.21298021 18.5 18.625 C18.19940057 20.99009361 18.00484988 23.36941881 17.875 25.75 C17.80023438 27.03132813 17.72546875 28.31265625 17.6484375 29.6328125 C17.59945312 30.62023437 17.55046875 31.60765625 17.5 32.625 C16.015 33.12 16.015 33.12 14.5 33.625 C14.17 34.615 13.84 35.605 13.5 36.625 C4.59 36.625 -4.32 36.625 -13.5 36.625 C-15.38519529 32.85460943 -14.68475994 28.27345405 -14.6875 24.125 C-14.69974609 23.14917969 -14.71199219 22.17335938 -14.72460938 21.16796875 C-14.72654297 20.23597656 -14.72847656 19.30398437 -14.73046875 18.34375 C-14.73457764 17.48716797 -14.73868652 16.63058594 -14.74291992 15.74804688 C-14.5 13.625 -14.5 13.625 -12.5 11.625 C-11.18 11.625 -9.86 11.625 -8.5 11.625 C-8.603125 10.738125 -8.70625 9.85125 -8.8125 8.9375 C-8.5 5.625 -8.5 5.625 -6.4375 2.75 C-3.5 0.625 -3.5 0.625 0 0 Z " fill="#F3A24E" transform="translate(28.5,14.375)"/>
<path d="M0 0 C21.45 0 42.9 0 65 0 C65 21.45 65 42.9 65 65 C43.55 65 22.1 65 0 65 C0 59.06 0 53.12 0 47 C2 50 2 50 2.97265625 51.8671875 C6.13356269 57.69050617 9.76832954 60.71788599 16 63 C20.50191949 63.6457134 24.89777152 63.6102971 29.4375 63.5 C31.18256836 63.50386719 31.18256836 63.50386719 32.96289062 63.5078125 C41.53870764 63.41129233 49.4398273 62.2618065 57 58 C58.14209817 56.21771064 58.14209817 56.21771064 59 54 C59.50394287 53.1037793 60.00788574 52.20755859 60.52709961 51.28417969 C62.86905527 46.06223578 62.55795994 40.93115154 62.5559082 35.27929688 C62.56244294 33.26756495 62.61690321 31.2608543 62.67382812 29.25 C62.71158308 20.82645107 61.98015168 14.28557933 56 8 C48.61120118 2.02818392 40.11314845 2.20873643 31 2.3125 C29.69804687 2.28478516 28.39609375 2.25707031 27.0546875 2.22851562 C18.74163581 2.24950818 12.33765656 3.31028025 6 9 C3.96858536 11.88150524 2.37041787 14.75427347 1 18 C0.67 18 0.34 18 0 18 C0 12.06 0 6.12 0 0 Z " fill="#F8F8F8" transform="translate(0,0)"/>
<path d="M0 0 C4.38415647 0.78288508 5.80548156 2.13797613 8.5 5.625 C9.3125 7.9375 9.3125 7.9375 9.5 9.625 C10.16 8.965 10.82 8.305 11.5 7.625 C14.9375 7.25 14.9375 7.25 18.5 7.625 C20.5 9.3125 20.5 9.3125 21.5 11.625 C21.25925978 14.99536311 20.91201979 16.21298021 18.5 18.625 C18.19940057 20.99009361 18.00484988 23.36941881 17.875 25.75 C17.80023438 27.03132813 17.72546875 28.31265625 17.6484375 29.6328125 C17.59945312 30.62023437 17.55046875 31.60765625 17.5 32.625 C15.025 33.12 15.025 33.12 12.5 33.625 C12.52320312 32.97273438 12.54640625 32.32046875 12.5703125 31.6484375 C12.67515398 26.5711142 12.625158 22.34757332 10.5 17.625 C9.84 16.965 9.18 16.305 8.5 15.625 C8.5 14.305 8.5 12.985 8.5 11.625 C7.18 11.625 5.86 11.625 4.5 11.625 C4.17 9.315 3.84 7.005 3.5 4.625 C1.19 4.625 -1.12 4.625 -3.5 4.625 C-3.83 6.935 -4.16 9.245 -4.5 11.625 C-5.82 11.625 -7.14 11.625 -8.5 11.625 C-8.96233492 7.6489197 -8.80954571 6.05648796 -6.4375 2.75 C-3.5 0.625 -3.5 0.625 0 0 Z " fill="#C7BBD6" transform="translate(28.5,14.375)"/>
<path d="M0 0 C2 3 2 3 2.97265625 4.8671875 C6.13022937 10.68436523 9.75942869 13.74549193 16 16 C20.56533175 16.59804749 25.02963016 16.5204866 29.625 16.375 C30.81351563 16.36082031 32.00203125 16.34664062 33.2265625 16.33203125 C38.89701543 16.23710179 44.41436948 15.99918904 50 15 C49.34 15.99 48.68 16.98 48 18 C45.93722534 18.36076355 45.93722534 18.36076355 43.36669922 18.34057617 C42.40585419 18.34034958 41.44500916 18.34012299 40.45504761 18.33988953 C39.41542877 18.32440567 38.37580994 18.30892181 37.3046875 18.29296875 C36.24210724 18.28872391 35.17952698 18.28447906 34.08474731 18.28010559 C30.68124354 18.26327389 27.27832567 18.22561303 23.875 18.1875 C21.57162312 18.17245899 19.26823698 18.15876958 16.96484375 18.14648438 C11.30966909 18.11335559 5.65493397 18.06154214 0 18 C0 12.06 0 6.12 0 0 Z " fill="#E7E7E7" transform="translate(0,47)"/>
<path d="M0 0 C3.5 0.625 3.5 0.625 6.375 2.5 C9.27329536 6.76219905 9.39193086 10.56539916 9.5 15.625 C9.17 14.305 8.84 12.985 8.5 11.625 C7.18 11.625 5.86 11.625 4.5 11.625 C4.17 9.315 3.84 7.005 3.5 4.625 C1.19 4.625 -1.12 4.625 -3.5 4.625 C-3.83 6.935 -4.16 9.245 -4.5 11.625 C-5.82 11.625 -7.14 11.625 -8.5 11.625 C-8.96233492 7.6489197 -8.80954571 6.05648796 -6.4375 2.75 C-3.5 0.625 -3.5 0.625 0 0 Z " fill="#BDB9C4" transform="translate(28.5,14.375)"/>
<path d="M0 0 C2.0625 0.4375 2.0625 0.4375 4 1 C5.36884358 5.51718381 4.47075246 8.58774263 3 13 C2.01 13 1.02 13 0 13 C-1.4617773 8.6146681 -2.44935236 5.47981638 -1 1 C-0.67 0.67 -0.34 0.34 0 0 Z " fill="#5C4865" transform="translate(27,32)"/>
<path d="M0 0 C2.31 0 4.62 0 7 0 C7.33 2.31 7.66 4.62 8 7 C5.03 7 2.06 7 -1 7 C-0.67 4.69 -0.34 2.38 0 0 Z " fill="#3D3D3D" transform="translate(25,19)"/>
<path d="M0 0 C6.15234375 0.5859375 6.15234375 0.5859375 8 1 C8.33 1.66 8.66 2.32 9 3 C6.69 3 4.38 3 2 3 C1.67 5.31 1.34 7.62 1 10 C-0.32 10 -1.64 10 -3 10 C-3.36923077 4.58461538 -3.36923077 4.58461538 -1.5 1.625 C-1.005 1.08875 -0.51 0.5525 0 0 Z " fill="#ADA5B5" transform="translate(23,16)"/>
<path d="M0 0 C1.66666667 0 3.33333333 0 5 0 C5.33 3.3 5.66 6.6 6 10 C5.67 8.68 5.34 7.36 5 6 C3.68 6 2.36 6 1 6 C0.67 4.02 0.34 2.04 0 0 Z " fill="#AAA2B0" transform="translate(32,20)"/>
<path d="M0 0 C0.99 0 1.98 0 3 0 C3 1.98 3 3.96 3 6 C2.01 6 1.02 6 0 6 C-0.38218767 4.34385343 -0.71395102 2.67542976 -1 1 C-0.67 0.67 -0.34 0.34 0 0 Z " fill="#605376" transform="translate(26,33)"/>
<path d="M0 0 C0.33 0 0.66 0 1 0 C1 1.98 1 3.96 1 6 C-0.32 6.33 -1.64 6.66 -3 7 C-2.38722388 4.03824877 -1.74627478 2.61941217 0 0 Z " fill="#704C53" transform="translate(30,38)"/>
</svg>
